<svg width="643.25" height="463.49" xmlns="http://www.w3.org/2000/svg" xml:space="preserve" version="1.1">

 <g>
  <title>Layer 1</title>
  <g id="svg_1">
   <g id="svg_2">
    <path stroke="#ffffff" fill="#ffffff" id="svg_3" d="m190.48,188.12c0,18.07 -12.66,30.57 -35.51,30.57l-48.48,0l0,-107.31l50.49,0c18.07,0 29.8,10.04 29.8,26.09c0,10.19 -5.4,18.84 -14.05,23.93c11.27,5.1 17.75,14.67 17.75,26.72zm-41.53,-56.05l-16.98,0l0,21.46l16.83,0c7.41,0 12.2,-4.32 12.2,-10.81c-0.01,-6.48 -4.02,-10.65 -12.05,-10.65zm15.75,53.88c0,-7.72 -5.4,-11.89 -13.74,-11.89l-18.99,0l0,23.94l19.15,0c8.63,0 13.58,-4.33 13.58,-12.05z"/>
    <path stroke="#ffffff" fill="#ffffff" id="svg_4" d="m197.56,178.08c0,-24.4 18.53,-42.62 44.47,-42.62c26.09,0 44.62,18.22 44.62,42.62c0,24.24 -18.53,42.62 -44.62,42.62c-25.94,-0.01 -44.47,-18.38 -44.47,-42.62zm63.16,-0.15c0,-11.58 -7.26,-19.61 -18.53,-19.61s-18.68,8.03 -18.68,19.76c0,11.43 7.41,19.76 18.68,19.76c11.11,0 18.53,-8.18 18.53,-19.91z"/>
    <path stroke="#ffffff" fill="#ffffff" id="svg_5" d="m290.08,198.92l21.31,-8.18c2.16,6.79 7.57,10.65 15.9,10.65c5.87,0 8.96,-2.32 8.96,-6.02c0,-12.82 -42.46,-6.64 -42.46,-34.59c0,-15.75 12.97,-25.32 33.51,-25.32c16.68,0 28.72,6.64 31.96,18.07l-21.31,8.34c-1.85,-5.1 -5.71,-7.72 -11.12,-7.72c-5.25,0 -7.87,2.01 -7.87,5.4c0,11.58 42.46,4.17 42.46,34.12c0,16.83 -13.59,27.02 -35.05,27.02c-18.38,0 -31.5,-7.56 -36.29,-21.77z"/>
    <path stroke="#ffffff" fill="#ffffff" id="svg_6" d="m422.83,218.69l-25.94,-35.82l0,35.82l-25.79,0l0,-112.87l25.79,0l0,62.38l24.86,-30.88l28.56,0l-30.26,37.52l30.57,43.85l-27.79,0z"/>
    <path stroke="#ffffff" fill="#ffffff" id="svg_7" d="m447.26,178.08c0,-24.4 18.53,-42.62 44.47,-42.62c26.09,0 44.62,18.22 44.62,42.62c0,24.24 -18.53,42.62 -44.62,42.62c-25.94,-0.01 -44.47,-18.38 -44.47,-42.62zm63.15,-0.15c0,-11.58 -7.26,-19.61 -18.53,-19.61s-18.68,8.03 -18.68,19.76c0,11.43 7.41,19.76 18.68,19.76c11.12,0 18.53,-8.18 18.53,-19.91z"/>
   </g>
   <rect stroke="#ffffff" fill="#ffffff" id="svg_8" height="429.86" width="30.6" transform="matrix(6.123234e-17 -1 1 6.123234e-17 -19.6762 662.5106)" y="126.16" x="306.12"/>
  </g>
 </g>
</svg>