<?xml version="1.0" encoding="utf-8"?>
<!-- Generator: Adobe Illustrator 27.0.1, SVG Export Plug-In . SVG Version: 6.00 Build 0)  -->
<svg version="1.1" id="Layer_1" xmlns="http://www.w3.org/2000/svg" xmlns:xlink="http://www.w3.org/1999/xlink" x="0px" y="0px"
	 viewBox="0 0 200 200" style="enable-background:new 0 0 200 200;" xml:space="preserve">
<g>
	<path d="M188.55,188.42h-44.47c-24.56,0-44.47-19.91-44.47-44.47l0,0c0-24.56,19.91-44.47,44.47-44.47h44.47l0,0V188.42
		L188.55,188.42z"/>
	<path d="M10.67,99.48h44.47c24.56,0,44.47,19.91,44.47,44.47l0,0c0,24.56-19.91,44.47-44.47,44.47H10.67l0,0V99.48L10.67,99.48z"/>
	<path d="M188.55,99.48h-44.47c-24.56,0-44.47-19.91-44.47-44.47l0,0c0-24.56,19.91-44.47,44.47-44.47h44.47l0,0V99.48L188.55,99.48
		z"/>
	<path d="M10.67,10.54h44.47c24.56,0,44.47,19.91,44.47,44.47l0,0c0,24.56-19.91,44.47-44.47,44.47H10.67l0,0V10.54L10.67,10.54z"/>
</g>
</svg>
