<?xml version="1.0" encoding="utf-8"?>
<!-- Generator: Adobe Illustrator 27.0.1, SVG Export Plug-In . SVG Version: 6.00 Build 0)  -->
<svg version="1.1" id="Layer_1" xmlns="http://www.w3.org/2000/svg" xmlns:xlink="http://www.w3.org/1999/xlink" x="0px" y="0px"
	 viewBox="0 0 200 200" style="enable-background:new 0 0 200 200;" xml:space="preserve">
<g transform="translate(384, 480) rotate(0, 48, 48) ">
	<path d="M-328.44-446.59v-22.02c-24.33,0-44.05,19.72-44.05,44.05v0h22.02C-350.46-436.73-340.6-446.59-328.44-446.59z"/>
	<path d="M-284.39-446.59v-22.02c-24.33,0-44.05,19.72-44.05,44.05v0h22.02C-306.41-436.73-296.55-446.59-284.39-446.59z"/>
	<path d="M-240.34-446.59v-22.02c-24.33,0-44.05,19.72-44.05,44.05v0h22.02C-262.37-436.73-252.51-446.59-240.34-446.59z"/>
	<path d="M-196.3-446.59v-22.02c-24.33,0-44.05,19.72-44.05,44.05v0h22.02C-218.32-436.73-208.46-446.59-196.3-446.59z"/>
	<path d="M-328.44-402.55v-22.02c-24.33,0-44.05,19.72-44.05,44.05v0h22.02C-350.46-392.69-340.6-402.55-328.44-402.55z"/>
	<path d="M-284.39-402.55v-22.02c-24.33,0-44.05,19.72-44.05,44.05v0h22.02C-306.41-392.69-296.55-402.55-284.39-402.55z"/>
	<path d="M-240.34-402.55v-22.02c-24.33,0-44.05,19.72-44.05,44.05v0h22.02C-262.37-392.69-252.51-402.55-240.34-402.55z"/>
	<path d="M-196.3-402.55v-22.02c-24.33,0-44.05,19.72-44.05,44.05v0h22.02C-218.32-392.69-208.46-402.55-196.3-402.55z"/>
	<path d="M-328.44-358.5v-22.02c-24.33,0-44.05,19.72-44.05,44.05v0h22.02C-350.46-348.64-340.6-358.5-328.44-358.5z"/>
	<path d="M-284.39-358.5v-22.02c-24.33,0-44.05,19.72-44.05,44.05v0h22.02C-306.41-348.64-296.55-358.5-284.39-358.5z"/>
	<path d="M-240.34-358.5v-22.02c-24.33,0-44.05,19.72-44.05,44.05v0h22.02C-262.37-348.64-252.51-358.5-240.34-358.5z"/>
	<path d="M-196.3-358.5v-22.02c-24.33,0-44.05,19.72-44.05,44.05v0h22.02C-218.32-348.64-208.46-358.5-196.3-358.5z"/>
	<path d="M-328.44-314.45v-22.02c-24.33,0-44.05,19.72-44.05,44.05c0,0,0,0,0,0h22.02C-350.46-304.59-340.6-314.45-328.44-314.45z"
		/>
	<path d="M-284.39-314.45v-22.02c-24.33,0-44.05,19.72-44.05,44.05c0,0,0,0,0,0h22.02C-306.41-304.59-296.55-314.45-284.39-314.45z"
		/>
	<path d="M-240.34-314.45v-22.02c-24.33,0-44.05,19.72-44.05,44.05c0,0,0,0,0,0h22.02C-262.37-304.59-252.51-314.45-240.34-314.45z"
		/>
	<path d="M-196.3-314.45v-22.02c-24.33,0-44.05,19.72-44.05,44.05c0,0,0,0,0,0h22.02C-218.32-304.59-208.46-314.45-196.3-314.45z"/>
</g>
</svg>
