<?xml version="1.0" encoding="utf-8"?>
<!-- Generator: Adobe Illustrator 27.0.1, SVG Export Plug-In . SVG Version: 6.00 Build 0)  -->
<svg version="1.1" id="Layer_1" xmlns="http://www.w3.org/2000/svg" xmlns:xlink="http://www.w3.org/1999/xlink" x="0px" y="0px"
	 viewBox="0 0 200 200" style="enable-background:new 0 0 200 200;" xml:space="preserve">
<g transform="translate(96, 96) rotate(270, 48, 48) translate(0, 96) scale(1, -1)">
	<circle cx="92.17" cy="91.8" r="28.88"/>
	<path d="M152.55,91.8c0-15.95-12.93-28.88-28.88-28.88v57.76C139.62,120.68,152.55,107.75,152.55,91.8z"/>
	<path d="M184.06,91.8c0-15.95-12.93-28.88-28.88-28.88v57.76C171.13,120.68,184.06,107.75,184.06,91.8z"/>
	<path d="M31.78,91.8c0,15.95,12.93,28.88,28.88,28.88V62.92C44.71,62.92,31.78,75.85,31.78,91.8z"/>
	<path d="M0.28,91.8c0,15.95,12.93,28.88,28.88,28.88V62.92C13.21,62.92,0.28,75.85,0.28,91.8z"/>
	<path d="M92.17,152.19c15.95,0,28.88-12.93,28.88-28.88H63.29C63.29,139.26,76.22,152.19,92.17,152.19z"/>
	<path d="M92.17,183.69c15.95,0,28.88-12.93,28.88-28.88H63.29C63.29,170.76,76.22,183.69,92.17,183.69z"/>
	<path d="M92.17,31.42c-15.95,0-28.88,12.93-28.88,28.88h57.76C121.05,44.35,108.12,31.42,92.17,31.42z"/>
	<path d="M92.17-0.09c-15.95,0-28.88,12.93-28.88,28.88h57.76C121.05,12.84,108.12-0.09,92.17-0.09z"/>
	<path d="M123.67,31.42V60.3h28.88C152.55,44.35,139.62,31.42,123.67,31.42z"/>
	<path d="M152.55,123.31h-28.88v28.88C139.62,152.19,152.55,139.26,152.55,123.31z"/>
	<path d="M60.66,152.19v-28.88H31.78C31.78,139.26,44.71,152.19,60.66,152.19z"/>
	<path d="M31.78,60.3h28.88V31.42C44.71,31.42,31.78,44.35,31.78,60.3z"/>
</g>
</svg>
