<?xml version="1.0" encoding="utf-8"?>
<!-- Generator: Adobe Illustrator 27.0.1, SVG Export Plug-In . SVG Version: 6.00 Build 0)  -->
<svg version="1.1" id="Layer_1" xmlns="http://www.w3.org/2000/svg" xmlns:xlink="http://www.w3.org/1999/xlink" x="0px" y="0px"
	 viewBox="0 0 200 200" style="enable-background:new 0 0 200 200;" xml:space="preserve">
<g>
	<polygon points="14.78,188.14 10.95,188.14 10.95,184.31 97.76,101.32 	"/>
	<polygon points="184.44,10.82 188.27,10.82 188.27,14.65 101.46,97.63 	"/>
	<polygon points="10.95,177.27 10.95,170.6 97.61,101.16 	"/>
	<polygon points="188.27,21.69 188.27,28.35 101.61,97.8 	"/>
	<polygon points="10.95,164.52 10.95,158.69 97.47,100.98 	"/>
	<polygon points="188.27,34.44 188.27,40.26 101.75,97.98 	"/>
	<polygon points="10.95,153.3 10.95,148.1 97.35,100.78 	"/>
	<polygon points="188.27,45.66 188.27,50.86 101.87,98.17 	"/>
	<polygon points="10.95,143.22 10.95,138.48 97.24,100.58 	"/>
	<polygon points="188.27,55.74 188.27,60.48 101.98,98.37 	"/>
	<polygon points="10.95,133.97 10.95,129.56 97.16,100.37 	"/>
	<polygon points="188.27,64.99 188.27,69.39 102.06,98.58 	"/>
	<polygon points="10.95,125.33 10.95,121.16 97.09,100.15 	"/>
	<polygon points="188.27,73.63 188.27,77.79 102.13,98.8 	"/>
	<polygon points="10.95,117.12 10.95,113.12 97.04,99.93 	"/>
	<polygon points="188.27,81.83 188.27,85.84 102.18,99.02 	"/>
	<polygon points="10.95,109.2 10.95,105.28 97.01,99.7 	"/>
	<polygon points="188.27,89.76 188.27,93.67 102.21,99.25 	"/>
	<polygon points="10.95,101.42 10.95,97.54 97,99.48 	"/>
	<polygon points="188.27,97.54 188.27,101.42 102.22,99.48 	"/>
	<polygon points="10.95,93.67 10.95,89.76 97.01,99.25 	"/>
	<polygon points="188.27,105.28 188.27,109.2 102.21,99.7 	"/>
	<polygon points="10.95,85.84 10.95,81.83 97.04,99.02 	"/>
	<polygon points="188.27,113.11 188.27,117.12 102.18,99.93 	"/>
	<polygon points="10.95,77.79 10.95,73.63 97.09,98.8 	"/>
	<polygon points="188.27,121.16 188.27,125.33 102.13,100.15 	"/>
	<polygon points="10.95,69.39 10.95,64.99 97.16,98.58 	"/>
	<polygon points="188.27,129.56 188.27,133.97 102.06,100.37 	"/>
	<polygon points="10.95,60.48 10.95,55.74 97.24,98.37 	"/>
	<polygon points="188.27,138.48 188.27,143.22 101.98,100.58 	"/>
	<polygon points="10.95,50.86 10.95,45.66 97.35,98.17 	"/>
	<polygon points="188.27,148.1 188.27,153.3 101.87,100.78 	"/>
	<polygon points="10.95,40.26 10.95,34.44 97.47,97.98 	"/>
	<polygon points="188.27,158.69 188.27,164.52 101.75,100.98 	"/>
	<polygon points="10.95,28.35 10.95,21.69 97.61,97.8 	"/>
	<polygon points="188.27,170.6 188.27,177.27 101.61,101.16 	"/>
	<polygon points="10.95,14.65 10.95,10.82 14.78,10.82 97.76,97.63 	"/>
	<polygon points="188.27,184.31 188.27,188.14 184.44,188.14 101.46,101.32 	"/>
	<polygon points="21.82,10.82 28.49,10.82 97.93,97.48 	"/>
	<polygon points="177.4,188.14 170.73,188.14 101.29,101.48 	"/>
	<polygon points="34.57,10.82 40.39,10.82 98.11,97.34 	"/>
	<polygon points="164.65,188.14 158.83,188.14 101.11,101.62 	"/>
	<polygon points="45.79,10.82 50.99,10.82 98.3,97.21 	"/>
	<polygon points="153.43,188.14 148.23,188.14 100.92,101.74 	"/>
	<polygon points="55.87,10.82 60.61,10.82 98.51,97.11 	"/>
	<polygon points="143.35,188.14 138.61,188.14 100.71,101.85 	"/>
	<polygon points="65.12,10.82 69.52,10.82 98.72,97.02 	"/>
	<polygon points="134.1,188.14 129.7,188.14 100.5,101.93 	"/>
	<polygon points="73.76,10.82 77.92,10.82 98.93,96.95 	"/>
	<polygon points="125.46,188.14 121.29,188.14 100.29,102 	"/>
	<polygon points="81.97,10.82 85.97,10.82 99.16,96.9 	"/>
	<polygon points="117.26,188.14 113.25,188.14 100.06,102.05 	"/>
	<polygon points="89.89,10.82 93.81,10.82 99.38,96.88 	"/>
	<polygon points="109.33,188.14 105.41,188.14 99.84,102.08 	"/>
	<polygon points="97.67,10.82 101.55,10.82 99.61,96.87 	"/>
	<polygon points="101.55,188.14 97.67,188.14 99.61,102.09 	"/>
	<polygon points="105.41,10.82 109.33,10.82 99.84,96.88 	"/>
	<polygon points="93.81,188.14 89.89,188.14 99.38,102.08 	"/>
	<polygon points="113.25,10.82 117.26,10.82 100.06,96.9 	"/>
	<polygon points="85.97,188.14 81.97,188.14 99.16,102.05 	"/>
	<polygon points="121.29,10.82 125.46,10.82 100.29,96.95 	"/>
	<polygon points="77.92,188.14 73.76,188.14 98.93,102 	"/>
	<polygon points="129.7,10.82 134.1,10.82 100.5,97.02 	"/>
	<polygon points="69.53,188.14 65.12,188.14 98.72,101.93 	"/>
	<polygon points="138.61,10.82 143.35,10.82 100.71,97.11 	"/>
	<polygon points="60.61,188.14 55.87,188.14 98.51,101.85 	"/>
	<polygon points="148.23,10.82 153.43,10.82 100.92,97.21 	"/>
	<polygon points="50.99,188.14 45.79,188.14 98.3,101.74 	"/>
	<polygon points="158.83,10.82 164.65,10.82 101.11,97.34 	"/>
	<polygon points="40.39,188.14 34.57,188.14 98.11,101.62 	"/>
	<polygon points="170.73,10.82 177.4,10.82 101.29,97.48 	"/>
	<polygon points="28.49,188.14 21.82,188.14 97.93,101.48 	"/>
</g>
</svg>
